<?xml version="1.0" encoding="utf-8"?>
<!-- Generator: Adobe Illustrator 16.0.0, SVG Export Plug-In . SVG Version: 6.00 Build 0)  -->
<!DOCTYPE svg PUBLIC "-//W3C//DTD SVG 1.1//EN" "http://www.w3.org/Graphics/SVG/1.1/DTD/svg11.dtd">
<svg version="1.1" id="Layer_1" xmlns="http://www.w3.org/2000/svg" xmlns:xlink="http://www.w3.org/1999/xlink" x="0px" y="0px"
	 width="840px" height="160px" viewBox="0 0 840 160" enable-background="new 0 0 840 160" xml:space="preserve">
<metadata><?xpacket begin="﻿" id="W5M0MpCehiHzreSzNTczkc9d"?>
<x:xmpmeta xmlns:x="adobe:ns:meta/" x:xmptk="Adobe XMP Core 5.3-c011 66.145661, 2012/02/06-14:56:27        ">
   <rdf:RDF xmlns:rdf="http://www.w3.org/1999/02/22-rdf-syntax-ns#">
      <rdf:Description rdf:about=""
            xmlns:xmp="http://ns.adobe.com/xap/1.0/"
            xmlns:xmpGImg="http://ns.adobe.com/xap/1.0/g/img/">
         <xmp:CreatorTool>Adobe Illustrator CS6 (Windows)</xmp:CreatorTool>
         <xmp:CreateDate>2017-01-16T14:47:58+05:30</xmp:CreateDate>
         <xmp:Thumbnails>
            <rdf:Alt>
               <rdf:li rdf:parseType="Resource">
                  <xmpGImg:width>256</xmpGImg:width>
                  <xmpGImg:height>52</xmpGImg:height>
                  <xmpGImg:format>JPEG</xmpGImg:format>
                  <xmpGImg:image>/9j/4AAQSkZJRgABAgEASABIAAD/7QAsUGhvdG9zaG9wIDMuMAA4QklNA+0AAAAAABAASAAAAAEA&#xA;AQBIAAAAAQAB/+4ADkFkb2JlAGTAAAAAAf/bAIQABgQEBAUEBgUFBgkGBQYJCwgGBggLDAoKCwoK&#xA;DBAMDAwMDAwQDA4PEA8ODBMTFBQTExwbGxscHx8fHx8fHx8fHwEHBwcNDA0YEBAYGhURFRofHx8f&#xA;Hx8fHx8fHx8fHx8fHx8fHx8fHx8fHx8fHx8fHx8fHx8fHx8fHx8fHx8fHx8f/8AAEQgANAEAAwER&#xA;AAIRAQMRAf/EAaIAAAAHAQEBAQEAAAAAAAAAAAQFAwIGAQAHCAkKCwEAAgIDAQEBAQEAAAAAAAAA&#xA;AQACAwQFBgcICQoLEAACAQMDAgQCBgcDBAIGAnMBAgMRBAAFIRIxQVEGE2EicYEUMpGhBxWxQiPB&#xA;UtHhMxZi8CRygvElQzRTkqKyY3PCNUQnk6OzNhdUZHTD0uIIJoMJChgZhJRFRqS0VtNVKBry4/PE&#xA;1OT0ZXWFlaW1xdXl9WZ2hpamtsbW5vY3R1dnd4eXp7fH1+f3OEhYaHiImKi4yNjo+Ck5SVlpeYmZ&#xA;qbnJ2en5KjpKWmp6ipqqusra6voRAAICAQIDBQUEBQYECAMDbQEAAhEDBCESMUEFURNhIgZxgZEy&#xA;obHwFMHR4SNCFVJicvEzJDRDghaSUyWiY7LCB3PSNeJEgxdUkwgJChgZJjZFGidkdFU38qOzwygp&#xA;0+PzhJSktMTU5PRldYWVpbXF1eX1RlZmdoaWprbG1ub2R1dnd4eXp7fH1+f3OEhYaHiImKi4yNjo&#xA;+DlJWWl5iZmpucnZ6fkqOkpaanqKmqq6ytrq+v/aAAwDAQACEQMRAD8A9U4q7FXYq7FXYq7FXYq7&#xA;FXYq7FXYq7FXYq7FXYq7FXYq7FXYq7FXYq7FXYq7FXYq7FXYq7FXYq7FXYq7FXYq7FXYq7FXYq7F&#xA;XYq7FXYq7FXYq7FXYq7FXYq7FXYq7FXYq7FXYq7FXYq7FXYq7FXYq7FXYq7FXYq7FXYq7FXYq7FX&#xA;Yq7FXYq7FXYq7FXYq7FXYq7FXYq7FXYq7FXYq7FXYq7FXYq7FXYq7FXYq7FXYq7FXYq7FXYq7FXY&#xA;q7FXYq7FXYq7FXYq7FXYq7FXYq7FXYq7FXYq7FXYq7FXYq7FXYq7FXYq7FXYq7FXYq7FXYq7FXYq&#xA;7FXYq7FXYq7FXYq7FXYq7FXYq7FXYq7FXYq7FXYq7FXYq7FXYq7FXYq7FXYq7FXYq7FXYq7FXYq7&#xA;FXYq7FXYq7FXYq7FXYq7FXYq7FXYq7FXYq7FXYq7FXYq7FXYq7FXYq7FXYq7FXYq7FXYq7FXYq7F&#xA;XYq7FXYq7FXYq7FXYq7FXYq7FXYq7FXYq7FXYq7FXYq7FXYq7FXYq7FXYq7FXYq7FXYq7FXYq7FX&#xA;Yq7FXYq7FX//2Q==</xmpGImg:image>
               </rdf:li>
            </rdf:Alt>
         </xmp:Thumbnails>
      </rdf:Description>
      <rdf:Description rdf:about=""
            xmlns:xmpTPg="http://ns.adobe.com/xap/1.0/t/pg/"
            xmlns:stDim="http://ns.adobe.com/xap/1.0/sType/Dimensions#"
            xmlns:xmpG="http://ns.adobe.com/xap/1.0/g/">
         <xmpTPg:MaxPageSize rdf:parseType="Resource">
            <stDim:w>840.000000</stDim:w>
            <stDim:h>160.000000</stDim:h>
            <stDim:unit>Pixels</stDim:unit>
         </xmpTPg:MaxPageSize>
         <xmpTPg:NPages>1</xmpTPg:NPages>
         <xmpTPg:HasVisibleTransparency>False</xmpTPg:HasVisibleTransparency>
         <xmpTPg:HasVisibleOverprint>False</xmpTPg:HasVisibleOverprint>
         <xmpTPg:PlateNames>
            <rdf:Seq>
               <rdf:li>Black</rdf:li>
            </rdf:Seq>
         </xmpTPg:PlateNames>
         <xmpTPg:SwatchGroups>
            <rdf:Seq>
               <rdf:li rdf:parseType="Resource">
                  <xmpG:groupName>Default Swatch Group</xmpG:groupName>
                  <xmpG:groupType>0</xmpG:groupType>
               </rdf:li>
            </rdf:Seq>
         </xmpTPg:SwatchGroups>
      </rdf:Description>
      <rdf:Description rdf:about=""
            xmlns:dc="http://purl.org/dc/elements/1.1/">
         <dc:format>image/svg+xml</dc:format>
      </rdf:Description>
   </rdf:RDF>
</x:xmpmeta>
                                                                                                    
                                                                                                    
                                                                                                    
                                                                                                    
                                                                                                    
                                                                                                    
                                                                                                    
                                                                                                    
                                                                                                    
                                                                                                    
                                                                                                    
                                                                                                    
                                                                                                    
                                                                                                    
                                                                                                    
                                                                                                    
                                                                                                    
                                                                                                    
                                                                                                    
                                                                                                    
                           
<?xpacket end="w"?>
	</metadata>
<g>
	<image overflow="visible" width="840" height="160" xlink:href="F0F8B6E3.jpg" >
	</image>
	<g>
		<defs>
			<path id="SVGID_1_" d="M94.99,130.41c-0.42,1.073-1.145,1.844-2.171,2.311c-0.747,0.188-1.259,0.279-1.539,0.279
				c-1.87,0-3.128-0.841-3.78-2.519l-11.62-27.301H22.4l-11.76,27.301c-0.374,1.025-1.097,1.772-2.171,2.239
				c-1.073,0.465-2.124,0.465-3.149,0c-1.026-0.467-1.75-1.237-2.169-2.311c-0.419-1.071-0.445-2.121-0.071-3.15L15.821,97.44
				L45.219,28.28c0.747-1.68,2.053-2.52,3.92-2.52c1.773,0,3.034,0.839,3.78,2.52l29.4,69.161l12.741,29.819
				C95.431,128.289,95.41,129.339,94.99,130.41L94.99,130.41z M49.139,40.319L25.9,94.921H72.38L49.139,40.319L49.139,40.319z
				 M148.967,85.439l-16.242,16.241c-6.883,6.883-10.672,15.041-11.367,24.476h31.668c0.927,0,1.719,0.329,2.377,0.985
				c0.656,0.658,0.986,1.491,0.986,2.494c0,0.929-0.33,1.723-0.986,2.379c-0.658,0.656-1.45,0.985-2.377,0.985h-35.266
				c-0.927,0-1.721-0.329-2.377-0.985c-0.658-0.656-0.985-1.45-0.985-2.379c0-12.836,4.524-23.779,13.572-32.828l16.124-16.123
				c3.556-3.557,5.335-7.771,5.335-12.645c0-0.153,0.02-0.327,0.058-0.521s0.058-0.329,0.058-0.407
				c-0.232-4.563-1.992-8.391-5.278-11.485c-3.287-3.091-7.211-4.639-11.773-4.639c-4.718,0-8.742,1.663-12.065,4.987
				c-3.324,3.326-4.987,7.348-4.987,12.063c0,0.927-0.329,1.721-0.985,2.377c-0.659,0.659-1.491,0.988-2.494,0.988
				c-0.93,0-1.724-0.329-2.38-0.988c-0.656-0.656-0.985-1.45-0.985-2.377c0-6.573,2.339-12.197,7.019-16.878
				c4.677-4.677,10.303-7.016,16.878-7.016c6.65,0,12.296,2.319,16.935,6.958c4.641,4.641,6.96,10.286,6.96,16.937
				c0,0.542-0.039,0.927-0.116,1.16C155.887,75.542,153.451,80.955,148.967,85.439L148.967,85.439z M183.189,124.74h52.221
				c1.119,0,2.076,0.42,2.87,1.259c0.792,0.842,1.19,1.82,1.19,2.941c0,1.119-0.398,2.078-1.19,2.87
				c-0.794,0.794-1.751,1.189-2.87,1.189h-59.5c-1.121,0-2.079-0.396-2.87-1.189c-0.794-0.792-1.19-1.751-1.19-2.87
				c0-0.932,0.185-1.633,0.56-2.1l55.72-92.821h-52.219c-1.121,0-2.079-0.419-2.87-1.261c-0.794-0.839-1.19-1.82-1.19-2.939
				c0-1.121,0.396-2.076,1.19-2.87c0.792-0.792,1.749-1.19,2.87-1.19h59.5c1.119,0,2.076,0.398,2.87,1.19
				c0.792,0.794,1.19,1.749,1.19,2.87c0,0.934-0.189,1.633-0.562,2.1L183.189,124.74L183.189,124.74z M361.617,32.759
				c-0.794,0.841-1.75,1.261-2.87,1.261h-24.779v94.92c0,1.119-0.398,2.078-1.19,2.87c-0.793,0.794-1.751,1.189-2.87,1.189
				c-1.216,0-2.218-0.396-3.01-1.189c-0.794-0.792-1.19-1.751-1.19-2.87V34.02h-24.781c-1.119,0-2.079-0.419-2.87-1.261
				c-0.794-0.839-1.19-1.82-1.19-2.939c0-1.121,0.396-2.076,1.19-2.87c0.792-0.792,1.751-1.19,2.87-1.19h57.82
				c1.121,0,2.076,0.398,2.87,1.19c0.792,0.794,1.189,1.749,1.189,2.87C362.806,30.939,362.408,31.92,361.617,32.759L361.617,32.759
				z M449.394,121.101C441.507,129.033,431.965,133,420.766,133c-11.108,0-20.628-3.967-28.561-11.899
				c-7.935-7.933-11.9-17.453-11.9-28.562V29.82c0-1.121,0.396-2.076,1.189-2.87c0.792-0.792,1.751-1.19,2.87-1.19
				c1.211,0,2.216,0.398,3.01,1.19c0.792,0.794,1.189,1.749,1.189,2.87v62.719c0,8.868,3.15,16.45,9.452,22.75
				c6.3,6.302,13.882,9.451,22.75,9.451c8.864,0,16.47-3.149,22.819-9.451c6.347-6.3,9.521-13.882,9.521-22.75V29.82
				c0-1.121,0.396-2.076,1.189-2.87c0.792-0.792,1.749-1.19,2.87-1.19c1.119,0,2.076,0.398,2.87,1.19
				c0.792,0.794,1.19,1.749,1.19,2.87v62.719C461.226,103.647,457.281,113.168,449.394,121.101L449.394,121.101z M543.474,32.759
				c-0.794,0.841-1.749,1.261-2.87,1.261h-24.779v94.92c0,1.119-0.398,2.078-1.189,2.87c-0.794,0.794-1.752,1.189-2.87,1.189
				c-1.216,0-2.219-0.396-3.011-1.189c-0.793-0.792-1.189-1.751-1.189-2.87V34.02h-24.781c-1.119,0-2.078-0.419-2.87-1.261
				c-0.794-0.839-1.189-1.82-1.189-2.939c0-1.121,0.396-2.076,1.189-2.87c0.792-0.792,1.751-1.19,2.87-1.19h57.82
				c1.121,0,2.076,0.398,2.87,1.19c0.791,0.794,1.189,1.749,1.189,2.87C544.663,30.939,544.265,31.92,543.474,32.759L543.474,32.759
				z M650.081,117.389C639.722,127.798,627.215,133,612.563,133c-14.748,0-27.301-5.181-37.66-15.54
				c-10.361-10.359-15.54-22.911-15.54-37.66c0-14.652,5.202-27.161,15.609-37.52c10.406-10.36,22.938-15.541,37.591-15.541
				c14.652,0,27.159,5.181,37.519,15.541c10.361,10.359,15.54,22.868,15.54,37.52C665.621,94.454,660.442,106.984,650.081,117.389
				L650.081,117.389z M644.343,48.02c-8.776-8.772-19.37-13.161-31.78-13.161c-12.414,0-23.031,4.389-31.851,13.161
				c-8.819,8.774-13.229,19.368-13.229,31.78c0,12.509,4.385,23.148,13.158,31.92c8.774,8.774,19.413,13.161,31.922,13.161
				c12.41,0,23.004-4.411,31.78-13.229c8.771-8.821,13.158-19.438,13.158-31.852C657.501,67.388,653.114,56.794,644.343,48.02
				L644.343,48.02z M738,75.041c-5.598,5.598-12.412,8.4-20.439,8.4h-1.819l25.479,43.4c0.373,0.746,0.56,1.448,0.56,2.1
				c0,1.119-0.397,2.078-1.189,2.87c-0.794,0.794-1.797,1.189-3.01,1.189c-1.588,0-2.754-0.701-3.499-2.1l-27.859-47.46h-9.241v45.5
				c0,1.119-0.397,2.078-1.189,2.87c-0.794,0.794-1.799,1.189-3.01,1.189c-1.121,0-2.079-0.396-2.87-1.189
				c-0.794-0.792-1.19-1.751-1.19-2.87V29.82c0-1.121,0.396-2.076,1.19-2.87c0.791-0.792,1.749-1.19,2.87-1.19h24.778
				c8.027,0,14.842,2.799,20.439,8.399c5.601,5.601,8.402,12.415,8.402,20.439C746.402,62.629,743.601,69.44,738,75.041L738,75.041z
				 M732.191,40.04c-4.061-4.013-8.938-6.02-14.631-6.02h-20.579v41.3h20.579c5.693,0,10.57-2.031,14.631-6.091
				c4.06-4.06,6.091-8.935,6.091-14.63C738.282,48.908,736.251,44.055,732.191,40.04L732.191,40.04z M817.521,58.659
				c-1.119,0-2.078-0.396-2.87-1.19c-0.794-0.792-1.189-1.749-1.189-2.87c0-5.691-2.029-10.544-6.089-14.559
				c-4.061-4.013-8.94-6.02-14.631-6.02c-5.694,0-10.549,2.007-14.56,6.02c-4.015,4.015-6.02,8.868-6.02,14.559
				c0,5.416,2.051,9.731,6.16,12.95c4.104,3.221,9.331,5.858,15.68,7.911c4.105,1.308,7.63,2.659,10.568,4.06
				c2.941,1.401,5.788,3.198,8.542,5.39c2.751,2.194,4.852,4.9,6.299,8.119c1.446,3.221,2.169,6.931,2.169,11.13
				c0,7.935-2.822,14.726-8.468,20.371c-5.65,5.647-12.438,8.47-20.371,8.47c-7.935,0-14.725-2.822-20.37-8.47
				c-5.648-5.646-8.471-12.437-8.471-20.371c0-1.118,0.396-2.1,1.189-2.938c0.794-0.842,1.752-1.261,2.87-1.261
				c1.214,0,2.217,0.419,3.011,1.261c0.793,0.839,1.191,1.82,1.191,2.938c0,5.695,2.005,10.549,6.02,14.562
				c4.011,4.013,8.865,6.02,14.56,6.02c5.69,0,10.57-2.007,14.631-6.02c4.06-4.013,6.089-8.866,6.089-14.562
				c0-3.171-0.584-5.925-1.75-8.26c-1.168-2.332-2.94-4.315-5.32-5.948c-2.38-1.634-4.574-2.87-6.579-3.712
				c-2.008-0.839-4.738-1.82-8.191-2.938c-18.479-5.88-27.72-15.446-27.72-28.702c0-7.93,2.822-14.721,8.471-20.368
				c5.646-5.648,12.436-8.471,20.37-8.471c8.025,0,14.839,2.799,20.439,8.399c5.601,5.601,8.399,12.415,8.399,20.439
				c0,1.121-0.397,2.079-1.189,2.87C819.597,58.263,818.642,58.659,817.521,58.659L817.521,58.659z"/>
		</defs>
		<clipPath id="SVGID_2_">
			<use xlink:href="#SVGID_1_"  overflow="visible"/>
		</clipPath>
		<image overflow="visible" clip-path="url(#SVGID_2_)" width="840" height="160" xlink:href="F0F8B6E1.jpg" >
		</image>
	</g>
</g>
</svg>
